<svg xmlns="http://www.w3.org/2000/svg" height="43.421" width="41.734" version="1.1" viewBox="0 0 41.733994 43.421253">
 <path fill="#96c03d" d="m19.835 6.9747c-9.174 0-16.611 7.4373-16.61 16.611 0.00206 2.0855 0.39681 4.152 1.1637 6.0914l4.3223-0.18356c0.15896-0.10564 0.22132-0.2185 0.50615-0.26064 0.15981-0.02362 0.1777 0.0169 0.29274 0.02984 0.23964-0.11066 0.47581-0.25746 0.62282-0.4541 0.05289-0.07057 0.11957-0.17869 0.19856-0.31509 0.93642-1.6147 1.4381-3.7537 2.6648-5.7936 0.26757-0.44463 0.63675-1.0166 1.2802-1.4416 0.74239-0.49024 1.4796-0.57325 1.9057-0.68236 0.98486-0.25215 1.9692-0.76474 2.9526-1.3796 0.22571-0.14114 0.64516-0.44378 1.2654-0.53839 0.23575-0.03592 0.44251-0.02659 0.63265-0.0074-0.12063-0.43558 0.07764-0.94583-0.03967-1.3077-0.97644-0.79048-1.4622-1.8859-1.9725-2.9923-0.18664-0.95085-1.2593-2.814 0.12652-3.2206 1.0842 0.19059 2.1011 0.80081 2.9998 1.5036 1.0613 1.0253 0.44159-0.6318 0.2754-1.2208-0.08713-1.1296-0.26611-2.2776-0.11413-3.4216-0.0055-0.27973 0.03273-0.54564 0.09429-0.80639-0.85-0.1361-1.708-0.2066-2.569-0.2103zm8.3691 2.2877c0.02082 0.31096 0.05362 0.62195 0.06947 0.93293-0.0028 0.3752-0.19097 2.4911 0.51112 1.4068 0.3339-0.42723 0.63964-0.88373 0.9503-1.3324-0.492-0.3639-1.003-0.7003-1.531-1.0076zm8.046 11.928c-0.38089 0.07994-0.76272 0.14994-1.1364 0.21336-1.1609-0.15902-2.3437 0.06592-3.5084-0.13896-0.09219 0.38112 0.90296 1.7037 1.5707 2.1562 1.1604 0.41362 1.4174 2.3465-0.19601 1.9949-1.1989-0.23798-2.4567-0.44387-3.5109-1.1017-0.87098-1.2489-0.8329 0.68568-1.573 0.66991-0.08818-0.0019-0.18717-0.0309-0.30031-0.0968-0.49165-0.46902-0.93847-1.0181-1.2678-1.6203-0.17112 0.28977-0.40093 0.51011-0.65011 0.65761-0.03041 0.14411-0.0015 0.34938-0.04214 0.46146-0.25505 0.70265-0.70647 1.2306-1.1587 1.6326-0.21425 0.19049-0.48147 0.26014-0.71701 0.40941 0.03281 0.04639 0.07439 0.05996 0.10416 0.11165 0.18979 0.32866 0.25081 0.65259 0.27294 0.89817 0.02128 0.23794 0.0116 0.42073 0.01237 0.50367 0.0013 0.12707 0.06824 0.61044-0.16129 1.1587-0.14142 0.338-0.35631 0.58358-0.55084 0.75929-0.07821 0.07057-0.13216 0.09892-0.20336 0.15132 0.06258 0.10769 0.14163 0.17685 0.18852 0.30773 0.13782 0.38445 0.14899 0.76332 0.09673 1.0991-0.05233 0.33701-0.16864 0.61327-0.2803 0.83368-0.28355 0.55946-0.71552 1.0341-1.2506 1.3671-0.25894 0.16122-0.51294 0.19841-0.7716 0.27294-0.0193 0.02496-0.03726 0.07064-0.05706 0.0968-0.11766 0.15457-0.2482 0.30872-0.38714 0.46393-0.27768 0.31049-0.58591 0.62522-0.81628 0.85857-0.62968 0.63703-1.3236 1.3432-2.2207 1.8906-0.78666 0.48006-1.6359 0.79401-2.4713 1.0124-0.94201 0.24621-1.8252 0.26064-2.5954 0.33248 2.2353 1.0785 4.6839 1.6423 7.1658 1.65 9.1729-0.000071 16.609-7.4362 16.609-16.609-0.0066-0.80264-0.07121-1.6036-0.19355-2.3969z"/>
 <path fill="#ccd8ad" d="m21.102 20.85c-0.10265 0.1154-0.21451 0.22339-0.33491 0.32008-0.48716 0.3911-1.0901 0.60379-1.6475 0.88579-0.57527 0.29097-1.1149 0.66109-1.7269 0.86345-0.30251 0.09999-0.61966 0.15874-0.93793 0.1712 0.26622 0.08533 0.53876 0.15123 0.81386 0.20098 0.04938 0.0089 0.0991 0.01258 0.14881 0.01986 0.07768 0.0091 0.18787-0.0052 0.25812-0.02729 0.10942-0.03404 0.93493-0.45972 1.1636-0.60045 0.03751-0.02107 0.10376-0.05459 0.14637-0.07443 0.04339-0.01741 0.16035-0.08215 0.25557-0.13895 0.09699-0.06141 0.19786-0.11291 0.22327-0.11662 0.02674-0.0036 0.1022-0.04216 0.16879-0.08437 0.06436-0.04493 0.172-0.10036 0.23814-0.12654 0.06603-0.02628 0.20064-0.08433 0.29774-0.12903 0.0961-0.04063 0.24636-0.08499 0.33003-0.09925 0.08611-0.01643 0.16623-0.03513 0.1811-0.04714 0.04184-0.03609 0.68414 0.0305 1.062 0.11165 0.76759 0.16271 1.2435 0.16196 1.6127-0.0049 0.24203-0.10668 0.25878-0.10384 0.26056 0.09677 0.000888 0.16345 0.01298 0.19092 0.14637 0.30271 0.10775 0.08621 0.24791 0.14596 0.50126 0.20842 0.37652 0.0905 0.46586 0.09897 0.65495 0.06203 0.01609-0.0034 0.01543-0.0094 0.02985-0.01245 0.04061-0.0322 0.08289-0.06502 0.10165-0.1042-0.01065-0.01567-0.0051-0.0286-0.03462-0.04715-0.09544-0.06128-0.15181-0.20244-0.18865-0.36721-0.20463-0.16376-0.41426-0.32157-0.63265-0.46646-0.13594 0.04966-0.27776 0.08174-0.4218 0.09429-0.34745 0.03025-0.6949-0.05048-1.0323-0.13895-0.33791-0.08863-0.67481-0.18651-0.98997-0.33744-0.23138-0.11082-0.44943-0.25138-0.64763-0.41436zm-2.6176 2.3844c-0.04738 0.01066-0.10953 0.02054-0.14892 0.02977 0.0496-0.01143 0.09965-0.01612 0.14892-0.02977zm-3.8881 0.263c-0.23356 0.31023-0.43744 0.64231-0.61036 0.98999-0.66606 1.3391-0.84618 2.8859-1.5681 4.1957-0.484 0.87811-1.2056 1.6328-1.5259 2.5829-0.23464 0.69577-0.23464 1.4702 0 2.1661-0.321-0.18-0.6-0.437-0.806-0.742-0.2645-0.391-0.4077-0.863-0.407-1.335-0.1414 0.571-0.1269 1.179 0.0422 1.742 0.2013 0.67 0.6228 1.273 1.1838 1.692-0.876-0.156-1.7569-0.285-2.6403-0.387-1.1073-0.128-2.2184-0.213-3.3322-0.256l1.913 2.5109c0.4753-0.07058 0.97601-0.01875 1.4565 0.01742 0.33378 0.02508 0.65547 0.15103 0.98751 0.19353 0.75764 0.09677 1.553 0.35888 2.2852 0.14138 0.19338-0.05682 0.35832-0.20696 0.48632-0.36221 0.03492-0.04261 0.06947-0.14637 0.06947-0.14637s0.03627 0.086 0.07195 0.11164c0.21182 0.1517 0.50015 0.15902 0.75925 0.1861 0.3703 0.03873 0.74723 0.0074 1.1165-0.03973 0.23334-0.02985 0.46529-0.07357 0.68729-0.15136 0.92087-0.3227 1.8485-0.701 2.6301-1.2853 0.57316-0.42846 0.9275-1.0956 1.4515-1.583 0.21595-0.20086 0.26855-0.39606 0.69224-0.55086 0.28408-0.10531 0.38041-0.2084 0.37719-0.40682-0.0041-0.11275-0.04184-0.20618-0.12162-0.30528-0.06536-0.08567-0.10032-0.15791-0.07934-0.17855 0.01853-0.01842 0.13838-0.0435 0.263-0.05216 0.27698-0.01831 0.38585-0.0688 0.42424-0.19597 0.02453-0.08079 0.01143-0.1048-0.11164-0.19606-0.49537-0.37022-0.46852-0.33459-0.30772-0.39203 0.02042-0.0077 0.08334-0.000045 0.12406-0.0025-0.11374-0.01437-0.22882-0.02755-0.33735-0.06451-0.11486-0.03911-0.22616-0.11003-0.28542-0.21586-0.03773-0.06736-0.05171-0.14672-0.04217-0.22331 0.0097-0.07659 0.04361-0.14999 0.09677-0.20595-0.31138-0.02689-0.61389-0.14597-0.86091-0.33737-0.14093-0.10918-0.26511-0.24043-0.35489-0.3945-0.08966-0.15408-0.14404-0.33044-0.14881-0.50865-0.0048-0.17237 0.03695-0.34596 0.12151-0.49624s0.21251-0.27677 0.36232-0.36225c-0.26844 0.07974-0.56052 0.08376-0.83128 0.01245-0.27066-0.07138-0.52034-0.21766-0.71454-0.41933-0.29718-0.30862-0.4552-0.75099-0.40194-1.1761 0.05338-0.42647 0.32204-0.81954 0.69967-1.0247-0.42313 0.18463-0.92794 0.17134-1.3423-0.03226-0.22366-0.10988-0.42685-0.28002-0.52601-0.50865-0.09771-0.22526-0.08191-0.4963 0.03969-0.70962-0.05321 0.061-0.1239 0.10676-0.20098 0.1315-0.07707 0.02475-0.1619 0.02856-0.24067 0.0099-0.07878-0.01863-0.1506-0.05996-0.20842-0.11662s-0.10134-0.12756-0.12158-0.20594c-0.0314-0.12162-0.0091-0.25137 0.01489-0.37466 0.02408-0.12328 0.05164-0.24806 0.03225-0.37218-0.02396-0.15344-0.12389-0.29342-0.26053-0.36722zm7.8182 0.64511c-0.22316-0.02603-0.44976-0.02351-0.67237 0.0075-0.42635 0.05927-0.83028 0.22121-1.2232 0.39699-0.39728 0.17771-0.79378 0.37403-1.124 0.65751-0.32825 0.28192-0.58493 0.64288-0.93782 0.89324-0.20363 0.14438-0.43656 0.24973-0.67992 0.30518 0.35577 0.07737 0.72031 0.1183 1.0843 0.12158l-0.1365-0.09925s0.0779 0.0083 0.11663 0.0025c0.16646-0.0247 0.32659-0.08494 0.47895-0.15632 0.10442-0.04889 0.19176-0.13512 0.29518-0.18609 0.77669-0.38245 1.6668-0.73953 2.4341-0.90067 0 0 0.26411-0.07967 0.37952-0.15135 0.11053-0.06831 0.23171-0.14342 0.28786-0.26053 0.07635-0.15906 0.1204-0.3385 0.14892-0.51857-0.14903-0.04464-0.29718-0.09363-0.45165-0.11165zm-0.12651 3.8781c-0.09044-0.01093-0.18266-0.0091-0.27299 0.0025-0.18055 0.02327-0.35577 0.08122-0.52844 0.13895-0.35777 0.1196-0.71643 0.23695-1.0793 0.33993-0.12029 0.03412-0.24114 0.06722-0.35489 0.11909-0.11363 0.05188-0.22094 0.1253-0.29518 0.22579-0.05438 0.07356-0.08911 0.16035-0.1042 0.2506s-0.0101 0.18175 0.01243 0.27046c0.0072 0.02869 0.02352 0.0543 0.03473 0.08187 0.0053-0.08129 0.01121-0.08799 0.08678-0.03971 0.1123 0.06594 0.83794 0.03443 1.2853-0.05211 0.24957-0.04942 0.51602-0.13434 0.7667-0.22827 0.10165-0.06031 0.2104-0.11014 0.31016-0.17368 0.10864-0.0693 0.20663-0.13674 0.28531-0.20843 0.07834-0.07082 0.13649-0.14852 0.16879-0.22578 0.03751-0.08962 0.04372-0.21466 0.04461-0.35482-0.03296-0.02516-0.0647-0.05318-0.10165-0.07195-0.08123-0.04119-0.16768-0.06346-0.25812-0.07443z"/>
 <path fill="#086b3c" d="m36.541-8.9218e-8c-0.074 0.006078-0.205 1.2267-0.221 2.0792-0.0055 0.29975-0.01546 0.32518-0.10172 0.28783-0.09485-0.043317-0.11209 0.00885-0.17369 0.42924-0.07326 0.51662-0.19496 0.94351-0.28531 1.0124-0.04716 0.03585-0.09994 0.036444-0.14889-0.0000282-0.09058-0.070781-0.06898-0.10568-0.46398 0.70467-0.31763 0.65351-0.65606 1.2669-0.76666 1.3796-0.05349 0.053634-0.07513 0.053493-0.10921-0.00251-0.0356-0.063251-0.05815-0.058379-0.13149 0.017367-0.081 0.086514-0.23918 0.33209-0.75431 1.1562-0.11549 0.18691-0.22912 0.33957-0.2481 0.34243-0.02074-0.00104-0.04487-0.041818-0.05706-0.089315-0.02171-0.082378-0.03093-0.085037-0.11165-0.00247-0.04662 0.046337-0.15637 0.2333-0.24568 0.41185-0.08441 0.18016-0.19175 0.36853-0.23071 0.41936l-0.0372 0.049646c-0.0026 0.00404-0.0053 0.00894-0.0075 0.012403-0.0033 0.00474-0.0048 0.0096-0.0074 0.014913-0.0029 0.00589-0.0075 0.010755-0.01 0.017324-0.0029 0.00573-0.0084 0.010133-0.01004 0.017253-0.0037 0.00511-0.006 0.012693-0.0074 0.01987-0.0041 0.00547-0.0067 0.00871-0.0099 0.014948-0.0022 0.00342-0.0053 0.00633-0.0074 0.00998-0.0015 0.00263-0.0038 0.00481-0.0049 0.00747-0.0022 0.00358-0.0026 0.0064-0.0049 0.01-0.0022 0.00501-0.0053 0.012183-0.0075 0.017359-0.0029 0.00573-0.0044 0.00907-0.0076 0.014771-0.0031 0.00448-0.0075 0.012205-0.01 0.017324-0.0035 0.00493-0.0046 0.00924-0.0075 0.014842-0.0038 0.0052-0.0083 0.010097-0.01 0.017317-0.0032 0.00466-0.0075 0.00952-0.0099 0.014885-0.004 0.00537-0.0057 0.012353-0.0074 0.01994-0.0041 0.00555-0.0097 0.010359-0.01241 0.017359-0.0041 0.00555-0.0072 0.01043-0.01 0.017317-0.0039 0.00529-0.01064 0.012473-0.01486 0.017402-0.0045 0.00592-0.0061 0.00832-0.0099 0.014877-0.005 0.00636-0.01237 0.013499-0.01727 0.019955-0.0055 0.0058-0.0115 0.011929-0.01737 0.017366-0.0061 0.00555-0.01073 0.012424-0.01737 0.017367-0.0075 0.00453-0.01581 0.00733-0.02232 0.012417-0.0087 0.00428-0.01583 0.011589-0.02481 0.014906-0.0086 0.00308-0.01687 0.00188-0.02478 0.00499-0.0087 0.00168-0.01691 0.0056-0.02489 0.00735-0.0065 0.00109-0.01356 0.00153-0.01986 0.00247-0.0064 0.0008414-0.0134 0.00152-0.01987 0.00247-0.0072 0.000304-0.01095-0.00107-0.01741 0.0000141-0.0051 0.0006788-0.01151 0.00232-0.01735 0.0025-0.0051 0.0006788-0.01213 0.00152-0.01742 0.00243-0.0047 0.0003253-0.0085 0.00156-0.01241 0.00251l-0.15134 0.25557c-0.09629 0.16403-0.24099 0.38015-0.32004 0.48141-0.12346 0.15514-0.15882 0.18159-0.29027 0.20343l-0.15387 0.019799-0.40199 0.68243c-0.38127 0.63993-0.40963 0.68087-0.50367 0.68724-0.148 0.0056-0.19841 0.07707-0.47638 0.67493-0.14107 0.30002-0.30611 0.60988-0.37215 0.68978-0.10112 0.12473-0.12452 0.14078-0.19354 0.10416-0.04101-0.02234-0.10048-0.01167-0.12905 0.01492-0.06809 0.06767-0.38792 1.0783-0.49872 1.5731-0.04632 0.20782-0.09489 0.40574-0.10918 0.43671-0.03005 0.06795-0.04596 0.04921-0.16129-0.18859-0.14863-0.31367-0.34365-0.93437-0.39683-1.263-0.02567-0.17402-0.06767-0.37554-0.0968-0.45644-0.05119-0.13774-0.05904-0.14517-0.15132-0.13152-0.10967 0.01732-0.10939 0.03797-0.05961-0.78906 0.01096-0.20612 0.0066-0.42794-0.01237-0.49123-0.03076-0.09963-0.04327-0.113-0.11908-0.09928-0.17119 0.02312-0.16999-0.02418 0.03719-0.69975 0.05848-0.19707 0.11349-0.41825 0.11908-0.49625 0.01131-0.11483 0.000636-0.13739-0.05954-0.12403-0.11498 0.025314-0.14086-0.1673-0.10677-0.75194 0.02157-0.36946 0.01322-0.55062-0.02977-0.6079-0.07396-0.090934-0.07714-0.22988-0.04716-1.1364 0.01874-0.51923 0.0077-0.64297-0.05706-0.67988-0.05204-0.032527-0.07361-0.13796-0.08938-0.38452-0.0032-0.00813-0.0045-0.019092-0.0074-0.027294-0.0029-0.00841-0.0047-0.015981-0.0074-0.02482-0.0023-0.00898-0.0074-0.020153-0.01-0.029769-0.0021-0.00926-0.0051-0.01994-0.0074-0.029769-0.0017-0.00962-0.0029-0.017324-0.005-0.027294-0.0014-0.0099-0.0057-0.02192-0.0074-0.032315-0.0018-0.010889-0.000919-0.023405-0.0025-0.034719-0.000849-0.010465-0.0036-0.021001-0.005-0.032244-0.000919-0.010394-0.0038-0.021496-0.005-0.032244-0.0013-0.011597-0.0016-0.022981-0.0025-0.034719-0.000353-0.011102-0.0018-0.025527-0.0025-0.037194-0.000283-0.011031-0.0019-0.02086-0.0025-0.032315 0.00007-0.011384 0.000283-0.025173 0-0.037194 0.000212-0.011526 0.00007-0.025244 0-0.037194 0.000353-0.011667-0.000071-0.022698 0-0.03479 0.000777-0.012091 0.0021-0.024537 0.0025-0.037194 0.000778-0.012092 0.0018-0.024819 0.0024-0.037194 0.0012-0.011102-0.000848-0.023193 0.000071-0.034719 0.0018-0.011667 0.0035-0.02489 0.005-0.037194 0.0018-0.011667 0.0031-0.025314 0.005-0.037335 0.0018-0.011526 0.0033-0.02291 0.0049-0.034648 0.0023-0.010748 0.003-0.021284 0.005-0.032315 0.0025-0.011031 0.0052-0.023122 0.0074-0.034719 0.0032-0.011667 0.0044-0.02489 0.0074-0.037265 0.0027-0.011031 0.0047-0.023476 0.0074-0.034719 0.003-0.0099 0.0047-0.019587 0.0074-0.029769 0.0028-0.0082 0.0058-0.015981 0.0074-0.024819 0.0024-0.00792 0.0018-0.018102 0.0025-0.027294 0.0016-0.00714 0.0042-0.014779 0.0049-0.022345-0.00007-0.00431-0.000707-0.00636-0.00007-0.00983-0.0033-0.00113-0.0064 0.0002829-0.0074-0.0000707-0.01577-0.00502-0.03062-0.013789-0.04469-0.022344-0.01768-0.01089-0.03189-0.025809-0.04462-0.042214-0.01103-0.014284-0.01824-0.03281-0.02482-0.049568-0.0048-0.013152-0.0079-0.023334-0.0099-0.037194-0.0018-0.013223-0.0013-0.026517 0-0.039739 0.0011-0.011031 0.000213-0.025951 0.0025-0.037265 0.0026-0.00955 0.0074-0.017041 0.0099-0.027294 0.0032-0.0087 0.0062-0.016263 0.01-0.024819 0.000636-0.00177-0.000778-0.00544 0-0.00735l0.02479-0.31258c0.038-0.5358 0.022-0.6787-0.114-0.7973-0.085-0.075-0.102-0.1445-0.114-0.5583-0.007-0.2622 0.002-0.6608 0.022-0.8858l0.03474-0.41188-0.30766 0.28535c-0.29947 0.27333-0.30494 0.27656-0.36475 0.20346-0.05752-0.075477-0.06215-0.072577-0.18856 0.089329-0.37569 0.49145-0.43906 0.55728-0.4888 0.50864-0.0617-0.059998-0.08562-0.02803-0.2655 0.32258-0.08262 0.166-0.18875 0.37453-0.23567 0.46394l-0.08192 0.16132-0.05456-0.08935c-0.0443-0.073574-0.05858-0.080073-0.08687-0.024791-0.0138 0.023681-0.05213 0.086175-0.08432 0.14139-0.000566 0.00198-0.0017 0.0054-0.0024 0.00746-0.0023 0.00671-0.0041 0.011872-0.005 0.019891-0.0025 0.00685-0.0055 0.014722-0.0074 0.022295-0.0023 0.00671-0.0058 0.015012-0.0075 0.022366-0.0023 0.00664-0.0058 0.012445-0.0074 0.019884-0.0026 0.00692-0.0062 0.013994-0.0074 0.022295-0.0022 0.00513-0.0035 0.00904-0.005 0.014906-0.0027 0.00706-0.0051 0.014375-0.0074 0.022295-0.0026 0.00549-0.0056 0.011102-0.0074 0.017317-0.0027 0.00563-0.0079 0.011095-0.01 0.017289-0.0026 0.00556-0.0032 0.00869-0.005 0.014906-0.0031 0.00605-0.0056 0.01487-0.0074 0.022295-0.0026 0.00549-0.0079 0.00876-0.0099 0.014955-0.0027 0.00563-0.0028 0.013322-0.0049 0.01982-0.0027 0.00563-0.0062 0.012799-0.0074 0.019884-0.0033 0.00619-0.01035 0.00974-0.01241 0.01743-0.0041 0.00697-0.0073 0.015733-0.01239 0.02226-0.0054 0.00686-0.0094 0.013103-0.01488 0.019905-0.0065 0.00763-0.01649 0.01632-0.02484 0.022253-0.007 0.00634-0.0137 0.012891-0.02238 0.017359-0.0089 0.00453-0.01364 0.00814-0.02233 0.012459-0.0095 0.00403-0.01904 0.00769-0.02973 0.00987-0.01 0.00303-0.01952 0.00593-0.02983 0.0075-0.0097 0.00131-0.01997 0.00238-0.02977 0.00247-0.0086 0.0001768-0.01611-0.00168-0.02475-0.00255-0.0087-0.00119-0.01923-0.00339-0.02729-0.00495-0.007-0.00146-0.01334-0.000898-0.01993-0.0024-0.0067-0.00173-0.0089-0.00385-0.0148-0.00504-0.0055-0.00151-0.01249-0.0016-0.01742-0.00243-0.0043-0.0012-0.0091-0.00499-0.01239-0.00503-0.0035-0.0009122-0.0071 0.0001273-0.0099 0.0000141-0.0026-0.0003252-0.0046 0.0000707-0.0074-0.0000424-0.0014 0.0001202-0.0058-0.0003253-0.0073 0.0000283-0.0018 0.000495-0.0032-0.0005162-0.005 0.0000424l-0.0025 0.00247c-0.0021 0.0008909-0.0053 0.00153-0.0075 0.00244l-0.0025 0.00255-0.0025 0.00247c-0.0021 0.0016-0.0057 0.00308-0.0075 0.00492-0.002 0.00181-0.0033 0.00297-0.005 0.00495-0.0012 0.00148-0.0014 0.00331-0.0024 0.00498-0.0013 0.00207-0.0033 0.00589-0.0049 0.00752-0.0022 0.00334-0.0052 0.00411-0.0074 0.00742-0.0023 0.00375-0.0027 0.0088-0.005 0.012417-0.0025 0.00396-0.0056 0.00786-0.0075 0.01248-0.0018 0.00325-0.0029 0.0066-0.0049 0.00993-0.0021 0.00346-0.0037 0.00843-0.005 0.012424-0.0012 0.00414-0.0039 0.006-0.005 0.010006-0.0018 0.00614-0.0013 0.012968-0.0025 0.019877-0.0019 0.00486-0.0045 0.011101-0.0049 0.017338-0.0016 0.00593-0.0042 0.010882-0.0049 0.017402-0.0023 0.00664-0.0035 0.015168-0.0049 0.022359-0.0017 0.00607-0.0039 0.010536-0.0049 0.017409-0.002 0.00636-0.002 0.012473-0.0025 0.019884-0.0018 0.00728-0.0034 0.015019-0.0049 0.022352-0.0021 0.00643-0.0068 0.012-0.0074 0.019884-0.0016 0.00593-0.0032 0.011257-0.0049 0.017402-0.0022 0.00657-0.0034 0.015019-0.0049 0.022359-0.0022 0.00513-0.0041 0.010741-0.0049 0.017402-0.0025 0.00693-0.0031 0.014439-0.0049 0.022366-0.0032 0.00756-0.0065 0.014588-0.0099 0.022359l-0.0025 0.00255-0.10172 0.37714c-0.22705 0.84747-0.28143 0.96167-0.39202 0.85348-0.07397-0.075102-0.07835-0.058266-0.2605 0.58563-0.14623 0.51859-0.19226 0.61228-0.27789 0.57558-0.02836-0.016334-0.04936 0.18922-0.05211 0.50367 0.0032 0.36366-0.01945 0.53592-0.06201 0.55586-0.04151 0.020011-0.04957 0.11575-0.02242 0.31261 0.06088 0.45021 0.06272 0.56264 0.0075 0.53839-0.02899-0.010465-0.06067-0.010324-0.07191 0.00247-0.0111 0.011667 0.02404 0.32923 0.08188 0.69975 0.1224 0.82286 0.13138 1.0239 0.05211 1.0644-0.05784 0.03154-0.01145 0.22373 0.2605 1.0967 0.17105 0.53549 0.17791 0.58082 0.12657 0.65252-0.06265 0.08584 0.06781 0.36579 0.47136 1.0396 0.37943 0.62706 0.4179 0.70937 0.37215 0.75682-0.01952 0.02249-0.05515 0.02772-0.06944 0.01485-0.01619-0.01704-0.04497-0.0091-0.06944 0.01244-0.0582 0.0572 0.11045 0.32654 0.598 0.98252 0.23264 0.3107 0.44767 0.61426 0.48133 0.67493l0.06201 0.1067-0.1166-0.05211c-0.2868-0.11851-0.73334-0.38813-1.0198-0.61787-0.30073-0.23879-0.3894-0.2774-0.46146-0.21086-0.0396 0.03889-0.02829 0.05614-0.27549-0.34238-0.10677-0.1731-0.26693-0.40142-0.35476-0.51117-0.13682-0.16285-0.1743-0.19156-0.2506-0.17862-0.08096 0.01223-0.10451-0.0064-0.29281-0.25307-0.27542-0.36126-0.40842-0.48663-0.45403-0.43918-0.04823 0.04964-0.25201-0.10112-0.59553-0.4442-0.3124-0.30773-0.40114-0.36395-0.4739-0.29274-0.02744 0.02885-0.06583 0.03726-0.08938 0.01739-0.27606-0.24918-0.55345-0.48925-0.5905-0.50622-0.02623-0.01252-0.05883 0.0013-0.07191 0.03231-0.04356 0.09843-0.25824 0.01909-0.66249-0.24812-0.21369-0.14538-0.40029-0.25859-0.41436-0.2605-0.01669 0.000141-0.0036 0.06908 0.02235 0.15132 0.20117 0.63562 0.24643 0.99115 0.10168 0.85107-0.07736-0.08103-0.04851 0.03338 0.0968 0.34231 0.31523 0.68759 0.39648 0.93614 0.33001 0.98267-0.05975 0.04547-0.0087 0.14333 0.36225 0.69473 0.2856 0.42815 0.36706 0.60338 0.29027 0.6376-0.08188 0.03719-0.0038 0.14835 0.45905 0.60542 0.34493 0.34507 0.41175 0.42858 0.38955 0.47397-0.03387 0.07941 0.03875 0.14029 0.48133 0.41924 0.44661 0.28016 0.59765 0.41507 0.51117 0.45163-0.08867 0.03917-0.03302 0.07333 0.41436 0.24565 0.51392 0.20039 0.62996 0.26778 0.54582 0.30766-0.03458 0.01379-0.05756 0.03168-0.0495 0.04228 0.04271 0.04087 0.77407 0.26198 1.32 0.39697l0.15132 0.03465-0.09433 0.02489c-0.07212 0.01824-0.09963 0.04108-0.10416 0.09426-0.0062 0.08273-0.13682 0.08832-0.52602 0.01987-0.13018-0.02058-0.25053-0.01549-0.28037 0.01492-0.02927 0.0263-0.06208 0.04045-0.07446 0.02977-0.01287-0.01131-0.17494-0.02772-0.36473-0.03974-0.18922-0.01131-0.44293-0.0601-0.56074-0.10168-0.11788-0.04165-0.23207-0.06307-0.2506-0.04469-0.02143 0.02001-0.09433-0.0055-0.16624-0.05706-0.07913-0.05551-0.16666-0.08153-0.2134-0.06703-0.04002 0.01075-0.13767-0.0016-0.20838-0.02977l-0.12905-0.05706 0.17119 0.18364c0.08917 0.10034 0.15337 0.19679 0.13895 0.21093-0.01329 0.01428 0.02942 0.05247 0.09426 0.08931 0.07623 0.04073 0.16907 0.1347 0.25555 0.25809 0.07446 0.10317 0.16355 0.20697 0.19601 0.2233 0.10458 0.05593 0.37576 0.2711 0.464 0.36473 0.0449 0.04801 0.12721 0.09355 0.18356 0.10423 0.05918 0.0128 0.12862 0.04999 0.16136 0.08188 0.03111 0.02984 0.127 0.07184 0.20838 0.09185 0.08337 0.01845 0.17862 0.06378 0.21581 0.10168 0.03677 0.03719 0.16758 0.07976 0.29034 0.08938 0.11886 0.01124 0.24197 0.04497 0.27047 0.07686 0.05968 0.05756 0.52786 0.03755 0.8213-0.03472 0.08945-0.02312 0.19247-0.02786 0.22076-0.01739 0.08832 0.04009 1.2038-0.5741 1.2034-0.65994 0.000354-0.06979-0.04978-0.06689-0.30271 0.0098-0.14559 0.04589-0.45502 0.09397-0.68483 0.10925-0.43996 0.03139-1.3386-0.008-1.6028-0.06951-0.12848-0.02934-0.09093-0.03592 0.21588-0.05211 0.74352-0.03684 1.2832-0.15521 2.1661-0.46648 0.59326-0.21044 0.65556-0.24035 0.59793-0.29529-0.02242-0.02397-0.24883-0.11278-0.5012-0.19601-1.1706-0.38969-2.288-0.97956-3.3373-1.769-0.48239-0.3643-1.6719-1.5923-1.6723-1.7318-0.000849-0.01202 0.29826 0.2605 0.66001 0.60542 0.9425 0.89187 1.8044 1.4781 2.9427 2.0072 0.81727 0.37943 2.0623 0.81749 2.2678 0.79648 0.12261-0.01131 0.10755-0.0763-0.14637-0.59793-1.6223-3.316-2.2579-6.9402-1.8584-10.639 0.07142-0.65407 0.24812-1.6828 0.28779-1.6848 0.01329 0.00255-0.0037 0.25944-0.03727 0.58061-0.0355 0.31947-0.08259 0.94766-0.10168 1.4019-0.15938 3.6309 0.63505 7.4046 2.2157 10.51 0.15274 0.30222 0.23582 0.42603 0.27535 0.42426 0.13272 0.0019 1.6207-1.1331 2.4911-1.8956 0.64368-0.56434 2-1.9823 2.4465-2.5532 1.7107-2.1926 2.7613-4.4149 3.337-7.0693 0.07481-0.33687 0.15794-0.63142 0.19107-0.65253 0.03286-0.021546 0.08816-0.018583 0.12655 0.00992 0.05463 0.040263 0.05194 0.17744-0.01 0.64013-0.29169 2.199-1.059 4.2913-2.2257 6.1013-0.37208 0.57615-0.45227 0.69311-0.7617 1.0942-0.68964 0.88664-2.6 2.6655-4.1089 3.8285-0.2535 0.19339-0.67727 0.52453-0.94526 0.732-0.95587 0.73723-2.7886 1.9216-3.6325 2.3472l-0.15634 0.07446-0.0074-0.0074c-0.13534-0.12191-0.26983-0.24494-0.4044-0.36225-0.09836-0.08577-0.21977-0.19474-0.38954-0.26552-0.1248-0.05197-0.23921-0.06795-0.33001-0.08436-0.71913-0.12968-1.4313-0.38756-2.186-0.57318-0.24621-0.06053-0.52623-0.12304-0.82873-0.07693-0.35765 0.05459-0.6393 0.24289-0.88579 0.39704-1.0234 0.63972-2.0897 1.2065-3.2305 1.4986-0.50749 0.1299-1.0933 0.2127-1.6053 0.55077-0.43763 0.28899-0.73284 0.71234-0.97765 1.1191-1.1207 1.8637-1.6131 3.9891-2.6524 5.7812-0.08464 0.14616-0.16858 0.28822-0.26304 0.41436-0.29691 0.39704-0.71991 0.6994-1.186 0.86847-0.127-0.03465-0.25329-0.07651-0.3846-0.05706-0.18038 0.02666-0.32032 0.14821-0.45658 0.26552l-5.4645 0.233c-0.9506-2.186-1.4863-4.595-1.4863-7.133 0-9.887 7.9926-17.882 17.88-17.882 1.03-0.0005 2.034 0.1056 3.017 0.2724 0.192-0.4093 0.4-0.814 0.568-1.2282 0.077-0.2131 0.18-0.4149 0.293-0.6128-1.255-0.2495-2.551-0.3846-3.878-0.3846-10.943 0-19.835 8.8912-19.835 19.834-0.000014358 10.944 8.8917 19.835 19.835 19.835s19.835-8.8917 19.835-19.835c0-1.2471-0.12898-2.4637-0.34988-3.6474-0.14651 0.09928-0.29027 0.20527-0.44406 0.29274-0.42554 0.2704-0.89824 0.46139-1.3871 0.62282 0.13675 0.89251 0.22832 1.8006 0.22832 2.7318 0 9.887-7.995 17.88-17.882 17.88-4.0229 0.000071-7.7191-1.3397-10.704-3.5754 0.22451-0.04943 0.47129-0.09793 0.66242-0.13647 0.8976-0.1219 1.8105-0.10727 2.712-0.19601 0.83757-0.08252 1.6916-0.09977 2.5059-0.31261 0.7677-0.20061 1.5261-0.48493 2.2033-0.89817 0.76099-0.46443 1.4054-1.1054 2.0321-1.7393 0.4534-0.45891 1.1961-1.228 1.3027-1.5235 0.32096-0.05127 0.63406-0.14305 0.91054-0.31516 0.37802-0.23518 0.6871-0.57297 0.88827-0.97015 0.08245-0.16264 0.15083-0.3409 0.18116-0.53599 0.03048-0.19594 0.02227-0.40722-0.04964-0.60783-0.06145-0.17162-0.16087-0.3153-0.2704-0.43671-0.10925-0.12084-0.2303-0.22012-0.34245-0.31007-0.05473-0.04398-0.11066-0.08379-0.16624-0.12664 0.24119-0.13103 0.4855-0.25937 0.71701-0.40687 0.11363-0.07234 0.23356-0.15266 0.34995-0.25802 0.11717-0.10585 0.22847-0.23851 0.29769-0.40446 0.11752-0.28086 0.08655-0.55239 0.08436-0.76417-0.0013-0.12671 0.004-0.26651-0.0099-0.42186-0.01407-0.15634-0.04865-0.32796-0.14142-0.48875-0.08224-0.14248-0.19502-0.25272-0.31516-0.3375-0.11943-0.08422-0.24395-0.14128-0.36225-0.19099-0.10988-0.04624-0.23349-0.03465-0.3474-0.06951l0.22338-0.24812c0.59043-0.20351 1.1484-0.50551 1.6152-0.92058 0.37095-0.32979 0.704-0.73412 0.88339-1.2282 0.08019-0.22132 0.13619-0.48366 0.07686-0.75427-0.0067-0.03048-0.03776-0.04497-0.04716-0.07446 0.13824-0.01 0.27888-0.03139 0.41196-0.10168 0.15924-0.08414 0.30017-0.21644 0.3771-0.39704 0.05805-0.13527 0.0722-0.27712 0.05954-0.40942-0.01252-0.13131-0.05169-0.24996-0.09921-0.3573-0.10918-0.24607-0.27273-0.43819-0.44166-0.61038 0.0944-0.06611 0.28016-0.19587 0.48133-0.32746 0.2226-0.14863 0.51131-0.34768 0.64022-0.44166 0.12947-0.09454 0.24834-0.16108 0.26792-0.14644 0.01633 0.01167 0.0024 0.20124-0.03231 0.42433-0.03408 0.22373-0.0483 0.47921-0.02977 0.56816 0.02878 0.15054 0.03649 0.1608 0.12905 0.16384 0.11611 0.0062 0.11851 0.02249 0.12898 0.43416 0.0044 0.14071 0.03026 0.26149 0.05713 0.2704 0.02489 0.0052 0.09023 0.15302 0.14142 0.32753 0.09518 0.31353 0.14156 0.38099 0.18859 0.27047 0.03437-0.07877 0.05063-0.05091 0.16129 0.28291 0.09595 0.27598 0.10508 0.29076 0.1439 0.22323 0.03606-0.0601 0.05629-0.05742 0.10918-0.0024 0.0577 0.05374 0.31551 0.53995 0.40687 0.7617 0.0396 0.1014 0.08111 0.03529 0.07693-0.12162-0.0047-0.07517 0.0086-0.15047 0.02729-0.16872 0.01584-0.01641 0.02637-0.11802 0.02489-0.2233-0.0021-0.11003 0.01542-0.2192 0.04462-0.24558 0.02503-0.02644 0.04016-0.13986 0.02729-0.25314-0.01011-0.11109-0.01103-0.21934 0.005-0.23575 0.01577-0.01633 0.01683-0.11809-0.0025-0.22323-0.02022-0.10776-0.01591-0.23738 0.0074-0.28786 0.02291-0.05119 0.02341-0.18788 0.0025-0.30766-0.02157-0.11915-0.02864-0.22012-0.01732-0.22083 0.01393 0.0021 0.11795 0.14694 0.23575 0.32753 0.24883 0.38148 0.43904 0.58909 0.51357 0.55331 0.05678-0.02326 0.17388 0.11547 0.44908 0.51357 0.09701 0.14382 0.11879 0.15627 0.17614 0.1241 0.05049-0.03012 0.11335 0.0047 0.33496 0.19354 0.17204 0.14446 0.28546 0.22224 0.32011 0.20838 0.02461-0.01032 0.10819 0.01994 0.18611 0.07948 0.07856 0.0548 0.1726 0.12 0.20838 0.1463 0.03642 0.02595 0.08146 0.05827 0.09426 0.06951 0.01704 0.01124 0.03861-0.0044 0.05218-0.03465 0.01697-0.04243 0.07474-0.02439 0.22076 0.06944 0.10882 0.07375 0.22868 0.1212 0.28291 0.1166 0.05275-0.0065 0.20959 0.04115 0.3498 0.1067 0.17466 0.08457 0.25795 0.10182 0.29034 0.06449 0.0285-0.03288 0.09157-0.02666 0.17862 0.01739 0.07425 0.03818 0.16511 0.06187 0.19848 0.05211 0.03401-0.0091 0.1731 0.02857 0.30526 0.07941 0.16164 0.06604 0.24904 0.0741 0.26792 0.03967 0.01372-0.03578 0.10684-0.02185 0.26304 0.02729 0.13654 0.04419 0.31664 0.08245 0.40192 0.08683 0.15641 0.0123 0.1603 0.0087 0.07446-0.04462-0.27987-0.1854-0.36989-0.26594-0.3573-0.32506 0.01146-0.04978-0.02694-0.08209-0.2134-0.18611-0.12756-0.07099-0.26043-0.1446-0.30024-0.16377-0.04518-0.02765-0.05027-0.0449-0.01485-0.05204 0.02673-0.0078 0.03536-0.03083 0.01492-0.05211-0.0891-0.10041-0.34238-0.32442-0.52856-0.46648-0.13336-0.09928-0.21199-0.18031-0.21574-0.21842-0.0052-0.03295-0.10628-0.18519-0.2308-0.33743-0.29302-0.36784-0.32591-0.42603-0.28284-0.4715 0.02694-0.02397-0.06166-0.1475-0.33743-0.46641-0.45234-0.52305-0.46351-0.5444-0.33991-0.63024 0.08973-0.05989 0.09072-0.07644 0.0025-0.26792-0.09235-0.19686-0.26142-0.44739-0.52849-0.78659l-0.12162-0.15882 0.28779 0.12162c0.62353 0.26418 0.89902 0.34832 0.9553 0.29274 0.03868-0.04151 0.19948-0.02411 0.57318 0.05713 0.72747 0.16377 0.85524 0.16384 0.78906 0.01237-0.06838-0.14885 0.1299-0.13994 0.86585 0.02977 0.57156 0.13131 0.5992 0.12968 0.60542 0.04709 0.0053-0.05763 0.06661-0.06788 0.31763-0.06194 0.17628 0.0054 0.43105 0.02051 0.57064 0.03719 0.13767 0.01393 0.40241 0.03118 0.58308 0.03224 0.30766 0.0042 0.32909 0.002 0.28539-0.07198-0.02609-0.04533-0.0263-0.10352-0.0049-0.12403 0.05339-0.05367 0.35433-0.10896 1.0148-0.18858 0.50678-0.06654 0.63046-0.10154 0.56816-0.16129-0.0145-0.01322 0.09864-0.05947 0.25314-0.09928 0.34132-0.09511 0.66426-0.20563 0.69721-0.23815 0.01344-0.01442 0.0055-0.05897-0.01739-0.09928-0.03967-0.06852-0.03132-0.08987 0.07446-0.16624 0.04794-0.03663 0.09362-0.05487 0.12905-0.06696 0.003-0.0036 0.0042-0.0069 0.0074-0.01004 0.0052-0.005 0.01301-0.0065 0.01747-0.01237 0.0049-0.004 0.01047-0.0079 0.01485-0.0123 0.006-0.003 0.01372-0.0049 0.01739-0.0099 0.006-0.003 0.01174-0.0071 0.01725-0.01004 0.0057-0.0028 0.0094-0.0071 0.01499-0.0099 0.0058-0.0028 0.01492-0.0039 0.01987-0.0074 0.0028-0.0017 0.0062-0.0015 0.0099-0.0025 0.0057-0.0029 0.0116-0.0047 0.01725-0.0075 0.0058-0.0028 0.01237-0.0063 0.01732-0.01 0.0054-0.0025 0.01025-0.0043 0.01478-0.0076 0.0056-0.0026 0.01259-0.0041 0.01732-0.0074 0.0058-0.0028 0.01082-0.0057 0.01499-0.0099 0.0055-0.0027 0.01167-0.0046 0.01732-0.0074 0.0057-0.0028 0.01308-0.0033 0.01732-0.0076 0.0055-0.0025 0.01273-0.0066 0.0174-0.0099 0.0054-0.0024 0.01273-0.0017 0.01732-0.0049 0.0057-0.0028 0.01018-0.0064 0.01499-0.0099 0.0059-0.003 0.0099-0.004 0.01485-0.0075 0.0057-0.0028 0.0157-0.0031 0.01994-0.0074 0.0065-0.0023 0.01294-0.0057 0.01725-0.01004 0.0057-0.0028 0.01174-0.0071 0.01732-0.01 0.0064-0.0022 0.0098-0.0015 0.01478-0.005 0.0067-0.0023 0.01478-0.0063 0.01987-0.01 0.0064-0.002 0.01315-0.0033 0.01732-0.0074 0.0066-0.0022 0.01485-0.0038 0.01987-0.0074 0.0063-0.0019 0.01011-0.0016 0.01485-0.005 0.0064-0.002 0.01252-0.0088 0.01747-0.01237 0.0062-0.002 0.01252-0.0042 0.01725-0.0075 0.0062-0.0018 0.0152-0.0018 0.01994-0.0049 0.0064-0.0021 0.0099-0.004 0.01478-0.0076 0.0043-0.0013 0.0067-0.0029 0.01-0.0049 0.000212-0.000354 0.0071-0.0021 0.0074-0.0025 0.01471-0.01909 0.11681-0.08174 0.26799-0.15882 0.16037-0.08004 0.33234-0.18116 0.38212-0.2233 0.07905-0.06435 0.08153-0.08704 0.02729-0.14142-0.12968-0.12728-0.01732-0.27202 0.44406-0.60288 0.15153-0.10713 0.33833-0.25051 0.4119-0.31516 0.1163-0.10484 0.12654-0.12668 0.07939-0.18857-0.07548-0.09904-0.03654-0.16413 0.34498-0.57804 0.32581-0.35184 0.33973-0.37424 0.29027-0.43919-0.04565-0.05985-0.02533-0.11086 0.12657-0.34238 0.22425-0.33513 0.31871-0.52546 0.31012-0.61785-0.0098-0.08316 0.01688-0.09494-0.43917 0.21586-0.40302 0.27786-0.5539 0.34502-0.62523 0.268-0.03602-0.04303-0.08249-0.0462-0.12905-0.01491-0.11652 0.07296-0.56474 0.37438-0.57808 0.38462-0.0066 0.008-0.03707-0.01795-0.06703-0.05714-0.04638-0.05502-0.10588-0.04573-0.37465 0.06452-0.17893 0.07116-0.40631 0.17183-0.51108 0.22329-0.13774 0.07241-0.19757 0.0799-0.23822 0.03726-0.03125-0.02984-0.14347-0.03868-0.26057-0.01987l-0.02482 0.0025c-0.0022 0.0011-0.0027-0.00099-0.005 0-0.0067 0.0023-0.01393 0.0043-0.01987 0.0074-0.0067 0.0023-0.01393 0.007-0.01987 0.01-0.0066 0.0023-0.01697 0.004-0.02227 0.0074-0.0066 0.0023-0.0116 0.002-0.0174 0.005-0.0066 0.0022-0.01407 0.0045-0.01994 0.0074-0.0073 0.0018-0.01365 0.0047-0.01987 0.0074-0.0071 0.0016-0.0116 0.0021-0.0174 0.005-0.0073 0.0018-0.01619 0.0047-0.02234 0.0075-0.0071 0.0016-0.01372 0.0024-0.01987 0.0049-0.0072 0.0018-0.01393 0.007-0.01973 0.01-0.0072 0.0017-0.01358 0.000142-0.01994 0.0024-0.0068 0.0014-0.01407 0.0028-0.01987 0.005-0.0069 0.0013-0.0164 0.0051-0.02227 0.0074-0.0069 0.0014-0.01131 0.000282-0.0174 0.0025-0.0068 0.0013-0.01435 0.0047-0.01994 0.0074-0.0071 0.0016-0.01548 0.003-0.02234 0.005-0.0068 0.0013-0.01131 0.000283-0.01732 0.0025-0.0069 0.0013-0.01626 0.0025-0.02235 0.0049-0.0069 0.0013-0.01315 0.0033-0.01987 0.0049-0.007 0.0015-0.01393 0.0026-0.01987 0.005-0.0069 0.0013-0.01605 0.000071-0.02227 0.0025-0.0078 0.000778-0.01563 0.0056-0.02242 0.0074-0.0069 0.0013-0.01294 0.0011-0.01987 0.0025-0.0068 0.0013-0.01315 0.00099-0.01987 0.0025-0.0068 0.0013-0.01577 0.0033-0.02234 0.005-0.0076 0.000566-0.01308 0.0011-0.01987 0.0025-0.0065 0.00099-0.01584 0.0013-0.02235 0.0024-0.0076 0.000636-0.01315 0.00099-0.01987 0.0025-0.0065 0.00099-0.01669 0.003-0.02235 0.005-0.0065 0.00099-0.01089 0.0013-0.01732 0.0025-0.0076 0.000495-0.01591 0.0012-0.02242 0.0025-0.0073 0.000354-0.01089 0.0014-0.01732 0.0025-0.0063 0.000778-0.01619 0.0016-0.02235 0.0024-0.0073 0.000354-0.01351-0.0011-0.01987 0.000071-0.0074 0.000495-0.01351 0.0036-0.0198 0.005-0.0028-0.000142-0.0046 0.000071-0.0074 0-0.09723 0.03274-0.41394 0.11809-0.44908 0.11915-0.01619 0.000778-0.01485-0.03451-0.005-0.07941 0.02178-0.0734 0.008-0.07856-0.17112-0.08188-0.10437-0.0024-0.41613 0.01308-0.68738 0.03472-0.8713 0.07736-0.9524 0.07884-1.0098-0.01732-0.04236-0.06668-0.07955-0.07304-0.23073-0.03967-0.18512 0.04214-0.59517 0.19495-1.2729 0.47383-0.20916 0.08485-0.39923 0.14552-0.41684 0.13895-0.02008-0.0099-0.0145-0.0664 0.0075-0.12403 0.06937-0.18859 0.03642-0.18816-0.40206 0.02234-0.13386 0.06512-0.33368 0.15662-0.43911 0.19601-0.21333 0.08054-0.27542 0.07191-0.1439-0.01987 0.08966-0.06011 0.0618-0.11766-0.04964-0.11908-0.13237-0.0013-0.06421-0.07071 0.23822-0.26057 0.34528-0.21376 0.8638-0.57841 0.94781-0.66242 0.03507-0.03946 0.035-0.0647-0.0075-0.08188-0.07425-0.03394 0.04603-0.15634 0.3648-0.36225 0.26997-0.17324 0.79472-0.63746 0.87094-0.76912 0.03854-0.06201 0.03274-0.09327-0.0174-0.12162-0.06555-0.03203-0.04575-0.05919 0.38707-0.4913 0.492-0.49483 0.61942-0.68406 0.4739-0.69721-0.04342-0.0035-0.07616-0.01266-0.07686-0.02482-0.000778-0.01054 0.10168-0.14439 0.22571-0.29274 0.01004-0.01145 0.01167-0.0088 0.01987-0.01987 0.000637-0.0013 0.0014-0.004 0.0024-0.0049 0.0021-0.005 0.0062-0.01167 0.0075-0.01737 0.0022-0.0052 0.0018-0.0079 0.005-0.01246 0.003-0.0044 0.0053-0.0076 0.0075-0.0124 0.0035-0.0049 0.0071-0.01176 0.01-0.01732 0.0038-0.0052 0.0069-0.0114 0.01003-0.01725 0.0038-0.0052 0.01-0.01083 0.01234-0.01743 0.0034-0.0048 0.0065-0.01003 0.0099-0.01488 0.0035-0.0049 0.0058-0.0078 0.0099-0.01244 0.0039-0.0051 0.0093-0.01156 0.01234-0.01743 0.0037-0.0046 0.0062-0.0079 0.0099-0.01244 0.004-0.0047 0.0083-0.0079 0.0124-0.0124l0.0098-0.01251 0.0124-0.0124c0.0041-0.0045 0.0083-0.01053 0.01237-0.01492 0.0037-0.004 0.0096-0.0075 0.0124-0.0124 0.0037-0.004 0.0087-0.0082 0.0124-0.0124 0.0044-0.0046 0.008-0.01051 0.01237-0.01492 0.0039-0.0042 0.0061-0.006 0.0099-0.0099 0.004-0.0043 0.0084-0.01064 0.01237-0.01492 0.0039-0.0043 0.0093-0.0074 0.0124-0.0124 0.0038-0.0042 0.0061-0.0058 0.0099-0.0099 0.0028-0.0029 0.0071-0.0069 0.0099-0.0099 0.0011-0.0016 0.0014-0.0035 0.0023-0.005 0.0028-0.0031 0.0048-0.0067 0.0074-0.01 0.001-0.0015 0.004-0.0034 0.0049-0.0049 0.0026-0.004 0.0048-0.0061 0.0074-0.01 0.0039-0.0052 0.0082-0.01002 0.0123-0.01499 0.0041-0.0048 0.0081-0.0102 0.01237-0.01492 0.0041-0.0048 0.0079-0.0077 0.0124-0.0124 0.0047-0.005 0.0076-0.01017 0.01237-0.01492 0.0044-0.0046 0.01054-0.01039 0.01488-0.01488 0.0045-0.0045 0.008-0.01027 0.0123-0.01498 0.0044-0.0042 0.0092-0.0045 0.01252-0.0098 0.000983-0.000983 0.0016-0.0038 0.0023-0.005 0.0014-0.002 0.0061-0.0033 0.0075-0.0049 0.0037-0.0044 0.0042-0.0079 0.0074-0.01247 0.0037-0.0044 0.0065-0.0079 0.0099-0.01244 0.0038-0.005 0.0084-0.01022 0.0123-0.01499 0.0037-0.0046 0.0084-0.008 0.0124-0.0124 0.004-0.0048 0.0063-0.0099 0.0099-0.01488 0.004-0.005 0.01035-0.01021 0.01488-0.01488 0.0036-0.0046 0.0086-0.01019 0.01237-0.01491 0.0039-0.0051 0.0069-0.0091 0.0099-0.01496 0.004-0.005 0.0082-0.01022 0.01237-0.01492 0.0036-0.0046 0.0071-0.0094 0.0099-0.01495 0.0037-0.0046 0.0065-0.0077 0.0099-0.01244 0.0038-0.005 0.0077-0.01093 0.0099-0.0174 0.0036-0.0046 0.0065-0.0077 0.0099-0.01244l0.01238-0.01492c0.0039-0.0049 0.0084-0.01027 0.0123-0.01498 0.0038-0.0048 0.0064-0.0099 0.0099-0.01488 0.0037-0.0047 0.0083-0.01043 0.01237-0.01491 0.0036-0.0046 0.0086-0.0077 0.01241-0.01241 0.0036-0.0046 0.0085-0.0081 0.0124-0.0124 0.0037-0.0046 0.0064-0.01011 0.0099-0.01496 0.004-0.005 0.0081-0.0102 0.01237-0.01491 0.004-0.0047 0.0083-0.0079 0.01241-0.01241l-0.000021-0.0025 0.01986-0.02976c0.14378-0.24107 0.16342-0.32718 0.09177-0.36726-0.03835-0.02415-0.05579-0.05183-0.04467-0.06451 0.07858-0.08 0.32878-0.4579 0.33497-0.50369 0.003-0.0275 0.03816-0.1042 0.08192-0.17116 0.15309-0.2395 0.53459-1.0175 0.56815-1.1662 0.02883-0.125 0.01743-0.1573-0.04213-0.16123-0.14969-0.01323-0.14633-0.14076 0.0075-0.54089 0.27763-0.72198 0.397-1.0727 0.37462-1.0967-0.01423-0.013343-0.05161-0.027019-0.0844-0.027323-0.139-0.0015-0.123-0.1804 0.102-1.1654 0.106-0.4426 0.116-0.6138 0.039-0.633-0.109-0.0243-0.12-0.1817-0.072-0.8436 0.058-0.833 0.058-0.9553-0.032-0.9602-0.097-0.0083-0.145-0.2521-0.166-0.861-0.023-0.6811-0.062-0.8929-0.161-0.9528-0.087-0.0488-0.12-0.1913-0.229-0.9304-0.082-0.5493-0.097-0.5965-0.238-0.727-0.111-0.1037-0.142-0.1829-0.231-0.5509-0.187-0.77427-0.264-1.0272-0.3-1.0297zm-8.61 5.4959c0.01087 0.19674 0.0277 0.39388 0.03717 0.59046 0.04377 0.54681 0.07693 1.0952 0.12162 1.6426 0.84931 0.44244 1.6519 0.95544 2.4141 1.5235 0.07106-0.087893 0.13223-0.18851 0.20605-0.27294 0.42915-0.34684 0.75432-0.76578 1.0669-1.1984-1.187-0.8987-2.473-1.6687-3.846-2.2853zm8.9844 8.0515c-0.40787 0.59652-0.85546 1.1867-1.2232 1.784 0.12388 0.23787 0.23653 0.48302 0.34988 0.72705 0.70364 0.04773 1.4148 0.01952 2.109-0.07693-0.35203-0.84553-0.77466-1.6523-1.2357-2.4341zm0.02729 4.816c-0.0033 0.01181-0.13357 0.05735-0.3945 0.12905-0.93578 0.25809-2.141 0.43954-3.4464 0.51859-0.901 0.05473-2.8309 0.06979-3.8409 0.02984l0.0023 0.0049c-0.91747-0.03571-0.91782-0.03832-0.8684-0.09185 0.02199-0.02482 0.10833-0.09489 0.18852-0.15627 0.07269-0.05544 0.11229-0.08061 0.25314-0.08683 0.14071-0.0062 0.38346 0.0074 0.851 0.03967 1.191 0.07771 3.8902 0.07566 4.7838-0.0049 0.78956-0.07297 1.4962-0.17862 2.0891-0.31516 0.25831-0.05918 0.38488-0.07927 0.38212-0.06703zm-8.7661 0.77662c0.03974 0.02517 0.06414 0.11773 0.09928 0.29034 0.15811 0.78305 0.62834 1.7178 1.4688 2.9179 0.28956 0.41146 0.30441 0.43282 0.134 0.26297-0.65733-0.65704-1.5655-2.0602-1.8559-2.8708-0.13697-0.38474-0.13682-0.38488-0.03224-0.48875 0.09164-0.09249 0.14658-0.13654 0.18611-0.11172zm-0.67981 0.49879 0.0025 0.0025c0.01775 0.0193-0.000637 0.08761-0.03231 0.22083-0.14906 0.61122-0.19856 0.99264-0.20344 1.5508-0.0045 0.43049-0.06809 0.18067-0.10423-0.43671-0.01358-0.2284-0.0064-0.58768 0.01492-0.79641 0.03507-0.35186 0.04971-0.38318 0.16122-0.464 0.09475-0.06647 0.14368-0.09617 0.16136-0.07693zm-6.8729 0.5012c0.0091-0.000778 0.02114 0.0011 0.0297 0l0.14128 0.27167 0.08068-0.2692c0.1376 0.0071 0.22578 0.02821 0.38346 0.06696 0.71969 0.17706 1.4431 0.43834 2.2182 0.57813 0.09758 0.01768 0.17395 0.0355 0.22578 0.05706 0.07078 0.02949 0.15259 0.0932 0.25067 0.17869 0.0023 0.0021 0.0026 0.0029 0.0049 0.0049l-0.02637 0.24261 0.16645-0.13237c0.17317 0.15097 0.28857 0.26212 0.4505 0.41585 0.08117 0.07693 0.15196 0.15493 0.22076 0.2332 0.0035 0.03224 0.01421 0.05819 0.01485 0.09928 0.0048 0.2762 0.09298 0.50452 0.2308 0.59298 0.02949 0.0186 0.02404 0.03154 0.03465 0.04723-0.01881 0.03917-0.06102 0.07205-0.10161 0.1043-0.01442 0.003-0.01379 0.0088-0.02984 0.0123-0.18915 0.03698-0.27839 0.0285-0.65499-0.06201-0.25336-0.06244-0.39343-0.12219-0.50127-0.20838-0.13343-0.11179-0.14552-0.1393-0.1463-0.30271-0.0018-0.20068-0.0186-0.20343-0.26057-0.0968-0.36932 0.16695-0.8452 0.16766-1.6128 0.005-0.37788-0.08118-1.0201-0.14771-1.062-0.11165-0.01485 0.01202-0.09496 0.03076-0.18109 0.04716-0.08372 0.01428-0.23398 0.05862-0.33001 0.09921-0.09708 0.04476-0.23165 0.10281-0.29776 0.12905-0.06611 0.02623-0.17374 0.08167-0.23815 0.12657-0.06654 0.04222-0.14206 0.08082-0.16879 0.08436-0.02546 0.0037-0.12622 0.05523-0.22323 0.1166-0.09532 0.05685-0.2122 0.12155-0.25562 0.13895-0.04264 0.01987-0.10889 0.05332-0.14637 0.07439-0.22861 0.14078-1.0542 0.56646-1.1637 0.60055-0.07283 0.02291-0.19014 0.03854-0.26799 0.02729l-0.13895-0.01987 0.1265 0.04462c0.18258 0.0618 0.44279 0.04356 0.88586-0.05954 0.21128-0.05063 0.60564-0.13485 0.87837-0.18611 0.2728-0.05657 0.64516-0.141 0.82618-0.18852 0.72903-0.19502 1.4973-0.23723 1.9105-0.1043 0.4773 0.15372 0.73553 0.35638 0.89817 0.7047 0.18696 0.41182 0.10656 0.88834-0.07686 1.2703-0.05622 0.11717-0.17727 0.19226-0.28786 0.26057-0.1154 0.0717-0.37958 0.15132-0.37958 0.15132-0.76735 0.16122-1.6574 0.51824-2.4341 0.90078-0.10338 0.05091-0.19085 0.13711-0.29522 0.18604-0.15238 0.07135-0.31247 0.13159-0.47892 0.15634-0.03882 0.0057-0.1166-0.0025-0.1166-0.0025l0.14142 0.10168c0.36529 0.26432 0.8742 0.33807 1.7964 0.26297 0.21871-0.01761 0.38827-0.02312 0.56074-0.0297 0.30943 0.02871 0.61688 0.08811 0.90319 0.20838 0.1014 0.04257 0.19269 0.09086 0.26792 0.1439 0.0746 0.05268 0.13682 0.11222 0.17366 0.17621 0.04179 0.07248 0.06442 0.17091 0.07446 0.28291 0.01011 0.11292 0.006 0.24176 0.0074 0.3846 0.0024 0.23674 0.0086 0.43254-0.04709 0.56569-0.03239 0.07722-0.09051 0.155-0.16879 0.22578-0.07863 0.0717-0.17671 0.13909-0.28532 0.20838-0.09977 0.06357-0.2086 0.11342-0.31021 0.17374-0.2506 0.0939-0.51711 0.17883-0.76664 0.22825-0.44732 0.08655-1.1731 0.11809-1.2853 0.05211-0.07962-0.05077-0.08365-0.04745-0.08931 0.04716-0.0079 0.21538 0.34457 0.44838 0.7419 0.48635 0.3754 0.03953 0.58054 0.08103 0.80638 0.12148 0.10387 0.07715 0.20966 0.15493 0.31014 0.23575 0.10628 0.08549 0.20181 0.16617 0.28037 0.25307 0.07821 0.08641 0.13824 0.1784 0.17119 0.27047 0.0384 0.10699 0.04702 0.2354 0.02736 0.36225-0.01987 0.12792-0.06626 0.25816-0.13152 0.38707-0.000848 0.0017-0.0017 0.0033-0.0025 0.005-0.05091-0.0086-0.09412-0.02143-0.20343-0.01732-0.15684 0.0048-0.48006-0.0128-0.71708-0.03727-0.23674-0.0256-0.53401-0.05713-0.66496-0.07198-0.12869-0.01329-0.27782-0.01068-0.33241 0.01-0.16094 0.05742-0.18781 0.02178 0.30759 0.39202 0.12318 0.09122 0.13619 0.11526 0.11172 0.19601-0.0384 0.12721-0.14736 0.17777-0.42426 0.19601-0.12466 0.0087-0.24452 0.0338-0.26312 0.05211-0.02079 0.02065 0.01414 0.09291 0.07948 0.17862 0.07976 0.09914 0.11759 0.19254 0.12155 0.30526 0.0033 0.19834-0.09305 0.30151-0.37717 0.40687-0.4237 0.15472-0.47624 0.34995-0.69226 0.55084-0.52397 0.48734-0.87837 1.1546-1.4515 1.583-0.7815 0.58421-1.7091 0.96258-2.6301 1.2853-0.22196 0.07771-0.45396 0.12148-0.68731 0.15132-0.36925 0.04724-0.74621 0.07842-1.1165 0.03974-0.25908-0.02715-0.54737-0.03444-0.75922-0.18618-0.03571-0.02567-0.07198-0.11158-0.07198-0.11158s-0.03451 0.1038-0.06944 0.14637c-0.12799 0.15528-0.29296 0.3054-0.48628 0.36225-0.73228 0.21751-1.5276-0.04462-2.2852-0.14142-0.3323-0.043-0.654-0.169-0.9878-0.194-0.2212-0.017-0.4469-0.029-0.6724-0.04-1.6398-1.534-2.9827-3.371-3.9526-5.426l5.2776-0.22585c0.073822-0.003 0.141-0.03818 0.18611-0.09673 0.069367-0.09058 0.18222-0.1545 0.29522-0.17119 0.088247-0.01315 0.18498 0.00099 0.26552 0.03967 0.060387 0.02871 0.1282 0.03288 0.19099 0.01 0.57134-0.20054 1.0789-0.57219 1.4416-1.0571 0.11286-0.15061 0.20655-0.30582 0.29529-0.45905 1.0897-1.879 1.5836-4.0055 2.6499-5.7787 0.23165-0.38495 0.48776-0.73751 0.82138-0.9577 0.3911-0.25831 0.91288-0.34535 1.454-0.4838 1.2191-0.31219 2.3296-0.9116 3.372-1.5632 0.2489-0.1557 0.47716-0.29147 0.69714-0.32506zm2.5233 2.6226c0.15747-0.01379 0.26375 0.01131 0.47143 0.11165 0.13244 0.06654 0.30738 0.1248 0.42179 0.15139l0.000071 0.0026c0.01641 0.03111 0.03917 0.06011 0.06696 0.08181 0.08924 0.07057 0.15429 0.17678 0.17869 0.28786 0.02984 0.13619 0.0046 0.3037-0.05713 0.4739-0.05027 0.13866-0.1318 0.26714-0.21333 0.3945-0.06018-0.39082-0.57926-0.85518-0.9652-1.1885-0.13088-0.11307-0.29571-0.17748-0.4442-0.26545 0 0 0.09461-0.02574 0.18371-0.02729 0.08634-0.005 0.24671-0.01167 0.35723-0.02234z"/>
</svg>
